# xmcd
#
# Track frame offsets: 
#        150
#        10227
#        27254
#        42292
#        53842
#        70015
#        83902
#        100576
#
# Disc length: 1527 seconds
#
# Revision: 0
# Processed by: cddbd v1.5.2PL0 Copyright (c) Steve Scherf et al.
# Submitted via: ExactAudioCopy v0.99pb3
#
DISCID=5805f508
DTITLE=Michael Packer - My Time To Cry
DYEAR=2011
DGENRE=Blues
TTITLE0=My Time To Cry
TTITLE1=Wicked Feeling
TTITLE2=Bullfrog Blues
TTITLE3=Love Comes Easier
TTITLE4=She Left This Morning
TTITLE5=My Woman Tonight
TTITLE6=Bad Time Jackson
TTITLE7=Can't Find The Way Outside
EXTD=
EXTT0=
EXTT1=
EXTT2=
EXTT3=
EXTT4=
EXTT5=
EXTT6=
EXTT7=
PLAYORDER=
